<svg width="512" height="512" viewBox="0 0 512 512" fill="none" xmlns="http://www.w3.org/2000/svg">
<rect width="512" height="512" rx="64" fill="#0A0A0A"/>
<path d="M289.167 58L424.413 406.735C429.629 419.403 435.218 428.531 441.179 434.12C447.141 439.336 452.543 442.13 457.387 442.503V453.68C443.974 452.935 428.325 452.562 410.441 452.562C392.558 452.19 374.301 452.004 355.672 452.004C336.671 452.004 318.787 452.19 302.021 452.562C285.255 452.562 271.842 452.935 261.782 453.68V442.503C280.784 441.758 292.706 438.591 297.55 433.002C302.766 427.041 301.648 414.559 294.196 395.558L204.777 147.978L215.955 128.418L138.831 329.052C129.516 353.27 123.741 372.83 121.506 387.733C119.643 402.264 120.574 413.442 124.3 421.266C128.026 429.09 133.987 434.492 142.184 437.473C150.381 440.454 160.068 442.13 171.245 442.503V453.68C157.46 452.935 144.978 452.562 133.801 452.562C122.996 452.19 111.073 452.004 98.033 452.004C90.954 452.004 83.3161 452.19 75.1193 452.562C67.2951 452.562 60.5887 452.935 55 453.68V442.503C63.5693 441.012 71.9524 435.61 80.1492 426.296C88.7185 416.608 97.4741 400.215 106.416 377.115L230.485 58C239.427 58.7452 249.114 59.1177 259.547 59.1177C270.351 59.1177 280.225 58.7452 289.167 58Z" fill="#FAFAFA"/>
<path d="M289.167 58L424.413 406.735C429.629 419.403 435.218 428.531 441.179 434.12C447.141 439.336 452.543 442.13 457.387 442.503V453.68C443.974 452.935 428.325 452.562 410.441 452.562C392.558 452.19 374.301 452.004 355.672 452.004C336.671 452.004 318.787 452.19 302.021 452.562C285.255 452.562 271.842 452.935 261.782 453.68V442.503C280.784 441.758 292.706 438.591 297.55 433.002C302.766 427.041 301.648 414.559 294.196 395.558L204.777 147.978L215.955 128.418L138.831 329.052C129.516 353.27 123.741 372.83 121.506 387.733C119.643 402.264 120.574 413.442 124.3 421.266C128.026 429.09 133.987 434.492 142.184 437.473C150.381 440.454 160.068 442.13 171.245 442.503V453.68C157.46 452.935 144.978 452.562 133.801 452.562C122.996 452.19 111.073 452.004 98.033 452.004C90.954 452.004 83.3161 452.19 75.1193 452.562C67.2951 452.562 60.5887 452.935 55 453.68V442.503C63.5693 441.012 71.9524 435.61 80.1492 426.296C88.7185 416.608 97.4741 400.215 106.416 377.115L230.485 58C239.427 58.7452 249.114 59.1177 259.547 59.1177C270.351 59.1177 280.225 58.7452 289.167 58Z" fill="#FAFAFA"/>
</svg>
